<?xml version="1.0" encoding="utf-8" standalone="no"?>
<!DOCTYPE svg PUBLIC "-//W3C//DTD SVG 1.1//EN"
  "http://www.w3.org/Graphics/SVG/1.1/DTD/svg11.dtd">
<svg xmlns:xlink="http://www.w3.org/1999/xlink" width="631.960937pt" height="308.4pt" viewBox="0 0 631.960937 308.4" xmlns="http://www.w3.org/2000/svg" version="1.1">
 <metadata>
  <rdf:RDF xmlns:dc="http://purl.org/dc/elements/1.1/" xmlns:cc="http://creativecommons.org/ns#" xmlns:rdf="http://www.w3.org/1999/02/22-rdf-syntax-ns#">
   <cc:Work>
    <dc:type rdf:resource="http://purl.org/dc/dcmitype/StillImage"/>
    <dc:date>2026-09-12T12:16:10.076307</dc:date>
    <dc:format>image/svg+xml</dc:format>
    <dc:creator>
     <cc:Agent>
      <dc:title>Matplotlib v3.11.1, https://matplotlib.org/</dc:title>
     </cc:Agent>
    </dc:creator>
   </cc:Work>
  </rdf:RDF>
 </metadata>
 <defs>
  <style type="text/css">*{stroke-linejoin: round; stroke-linecap: butt}</style>
 </defs>
 <g id="figure_1">
  <g id="patch_1">
   <path d="M 0 308.4 
L 631.960937 308.4 
L 631.960937 0 
L 0 0 
z
" style="fill: #ffffff"/>
  </g>
  <g id="axes_1">
   <g id="patch_2">
    <path d="M 34.563281 284.2 
L 624.760937 284.2 
L 624.760937 7.2 
L 34.563281 7.2 
z
" style="fill: #ffffff"/>
   </g>
   <g id="matplotlib.axis_1">
    <g id="xtick_1">
     <g id="line2d_1">
      <defs>
       <path id="m47ccdefec6" d="M 0 0 
L 0 3.5 
" style="stroke: #475569; stroke-width: 0.8"/>
      </defs>
      <g>
       <use xlink:href="#m47ccdefec6" x="61.390447" y="284.2" style="fill: #475569; stroke: #475569; stroke-width: 0.8"/>
      </g>
     </g>
     <g id="text_1">
      <text style="font-size: 10px; font-family: 'DejaVu Sans'; text-anchor: middle; fill: #475569" x="61.390447" y="298.797656" transform="rotate(-0 61.390447 298.797656)">Q01</text>
     </g>
    </g>
    <g id="xtick_2">
     <g id="line2d_2">
      <g>
       <use xlink:href="#m47ccdefec6" x="121.006372" y="284.2" style="fill: #475569; stroke: #475569; stroke-width: 0.8"/>
      </g>
     </g>
     <g id="text_2">
      <text style="font-size: 10px; font-family: 'DejaVu Sans'; text-anchor: middle; fill: #475569" x="121.006372" y="298.797656" transform="rotate(-0 121.006372 298.797656)">Q02</text>
     </g>
    </g>
    <g id="xtick_3">
     <g id="line2d_3">
      <g>
       <use xlink:href="#m47ccdefec6" x="180.622297" y="284.2" style="fill: #475569; stroke: #475569; stroke-width: 0.8"/>
      </g>
     </g>
     <g id="text_3">
      <text style="font-size: 10px; font-family: 'DejaVu Sans'; text-anchor: middle; fill: #475569" x="180.622297" y="298.797656" transform="rotate(-0 180.622297 298.797656)">Q03</text>
     </g>
    </g>
    <g id="xtick_4">
     <g id="line2d_4">
      <g>
       <use xlink:href="#m47ccdefec6" x="240.238222" y="284.2" style="fill: #475569; stroke: #475569; stroke-width: 0.8"/>
      </g>
     </g>
     <g id="text_4">
      <text style="font-size: 10px; font-family: 'DejaVu Sans'; text-anchor: middle; fill: #475569" x="240.238222" y="298.797656" transform="rotate(-0 240.238222 298.797656)">Q04</text>
     </g>
    </g>
    <g id="xtick_5">
     <g id="line2d_5">
      <g>
       <use xlink:href="#m47ccdefec6" x="299.854147" y="284.2" style="fill: #475569; stroke: #475569; stroke-width: 0.8"/>
      </g>
     </g>
     <g id="text_5">
      <text style="font-size: 10px; font-family: 'DejaVu Sans'; text-anchor: middle; fill: #475569" x="299.854147" y="298.797656" transform="rotate(-0 299.854147 298.797656)">Q05</text>
     </g>
    </g>
    <g id="xtick_6">
     <g id="line2d_6">
      <g>
       <use xlink:href="#m47ccdefec6" x="359.470072" y="284.2" style="fill: #475569; stroke: #475569; stroke-width: 0.8"/>
      </g>
     </g>
     <g id="text_6">
      <text style="font-size: 10px; font-family: 'DejaVu Sans'; text-anchor: middle; fill: #475569" x="359.470072" y="298.797656" transform="rotate(-0 359.470072 298.797656)">Q06</text>
     </g>
    </g>
    <g id="xtick_7">
     <g id="line2d_7">
      <g>
       <use xlink:href="#m47ccdefec6" x="419.085997" y="284.2" style="fill: #475569; stroke: #475569; stroke-width: 0.8"/>
      </g>
     </g>
     <g id="text_7">
      <text style="font-size: 10px; font-family: 'DejaVu Sans'; text-anchor: middle; fill: #475569" x="419.085997" y="298.797656" transform="rotate(-0 419.085997 298.797656)">Q07</text>
     </g>
    </g>
    <g id="xtick_8">
     <g id="line2d_8">
      <g>
       <use xlink:href="#m47ccdefec6" x="478.701922" y="284.2" style="fill: #475569; stroke: #475569; stroke-width: 0.8"/>
      </g>
     </g>
     <g id="text_8">
      <text style="font-size: 10px; font-family: 'DejaVu Sans'; text-anchor: middle; fill: #475569" x="478.701922" y="298.797656" transform="rotate(-0 478.701922 298.797656)">Q08</text>
     </g>
    </g>
    <g id="xtick_9">
     <g id="line2d_9">
      <g>
       <use xlink:href="#m47ccdefec6" x="538.317846" y="284.2" style="fill: #475569; stroke: #475569; stroke-width: 0.8"/>
      </g>
     </g>
     <g id="text_9">
      <text style="font-size: 10px; font-family: 'DejaVu Sans'; text-anchor: middle; fill: #475569" x="538.317846" y="298.797656" transform="rotate(-0 538.317846 298.797656)">Q09</text>
     </g>
    </g>
    <g id="xtick_10">
     <g id="line2d_10">
      <g>
       <use xlink:href="#m47ccdefec6" x="597.933771" y="284.2" style="fill: #475569; stroke: #475569; stroke-width: 0.8"/>
      </g>
     </g>
     <g id="text_10">
      <text style="font-size: 10px; font-family: 'DejaVu Sans'; text-anchor: middle; fill: #475569" x="597.933771" y="298.797656" transform="rotate(-0 597.933771 298.797656)">Q10</text>
     </g>
    </g>
   </g>
   <g id="matplotlib.axis_2">
    <g id="ytick_1">
     <g id="line2d_11">
      <path d="M 34.563281 262.215873 
L 624.760937 262.215873 
" clip-path="url(#pffc66f7440)" style="fill: none; stroke: #e2e8f0; stroke-opacity: 0.6; stroke-width: 0.8; stroke-linecap: square"/>
     </g>
     <g id="line2d_12">
      <defs>
       <path id="m0e8d8df45b" d="M 0 0 
L -3.5 0 
" style="stroke: #475569; stroke-width: 0.8"/>
      </defs>
      <g>
       <use xlink:href="#m0e8d8df45b" x="34.563281" y="262.215873" style="fill: #475569; stroke: #475569; stroke-width: 0.8"/>
      </g>
     </g>
     <g id="text_11">
      <text style="font-size: 10px; font-family: 'DejaVu Sans'; text-anchor: end; fill: #475569" x="27.563281" y="266.014701" transform="rotate(-0 27.563281 266.014701)">1</text>
     </g>
    </g>
    <g id="ytick_2">
     <g id="line2d_13">
      <path d="M 34.563281 218.247619 
L 624.760937 218.247619 
" clip-path="url(#pffc66f7440)" style="fill: none; stroke: #e2e8f0; stroke-opacity: 0.6; stroke-width: 0.8; stroke-linecap: square"/>
     </g>
     <g id="line2d_14">
      <g>
       <use xlink:href="#m0e8d8df45b" x="34.563281" y="218.247619" style="fill: #475569; stroke: #475569; stroke-width: 0.8"/>
      </g>
     </g>
     <g id="text_12">
      <text style="font-size: 10px; font-family: 'DejaVu Sans'; text-anchor: end; fill: #475569" x="27.563281" y="222.046447" transform="rotate(-0 27.563281 222.046447)">2</text>
     </g>
    </g>
    <g id="ytick_3">
     <g id="line2d_15">
      <path d="M 34.563281 174.279365 
L 624.760937 174.279365 
" clip-path="url(#pffc66f7440)" style="fill: none; stroke: #e2e8f0; stroke-opacity: 0.6; stroke-width: 0.8; stroke-linecap: square"/>
     </g>
     <g id="line2d_16">
      <g>
       <use xlink:href="#m0e8d8df45b" x="34.563281" y="174.279365" style="fill: #475569; stroke: #475569; stroke-width: 0.8"/>
      </g>
     </g>
     <g id="text_13">
      <text style="font-size: 10px; font-family: 'DejaVu Sans'; text-anchor: end; fill: #475569" x="27.563281" y="178.078193" transform="rotate(-0 27.563281 178.078193)">3</text>
     </g>
    </g>
    <g id="ytick_4">
     <g id="line2d_17">
      <path d="M 34.563281 130.311111 
L 624.760937 130.311111 
" clip-path="url(#pffc66f7440)" style="fill: none; stroke: #e2e8f0; stroke-opacity: 0.6; stroke-width: 0.8; stroke-linecap: square"/>
     </g>
     <g id="line2d_18">
      <g>
       <use xlink:href="#m0e8d8df45b" x="34.563281" y="130.311111" style="fill: #475569; stroke: #475569; stroke-width: 0.8"/>
      </g>
     </g>
     <g id="text_14">
      <text style="font-size: 10px; font-family: 'DejaVu Sans'; text-anchor: end; fill: #475569" x="27.563281" y="134.109939" transform="rotate(-0 27.563281 134.109939)">4</text>
     </g>
    </g>
    <g id="ytick_5">
     <g id="line2d_19">
      <path d="M 34.563281 86.342857 
L 624.760937 86.342857 
" clip-path="url(#pffc66f7440)" style="fill: none; stroke: #e2e8f0; stroke-opacity: 0.6; stroke-width: 0.8; stroke-linecap: square"/>
     </g>
     <g id="line2d_20">
      <g>
       <use xlink:href="#m0e8d8df45b" x="34.563281" y="86.342857" style="fill: #475569; stroke: #475569; stroke-width: 0.8"/>
      </g>
     </g>
     <g id="text_15">
      <text style="font-size: 10px; font-family: 'DejaVu Sans'; text-anchor: end; fill: #475569" x="27.563281" y="90.141685" transform="rotate(-0 27.563281 90.141685)">5</text>
     </g>
    </g>
    <g id="ytick_6">
     <g id="line2d_21">
      <path d="M 34.563281 42.374603 
L 624.760937 42.374603 
" clip-path="url(#pffc66f7440)" style="fill: none; stroke: #e2e8f0; stroke-opacity: 0.6; stroke-width: 0.8; stroke-linecap: square"/>
     </g>
     <g id="line2d_22">
      <g>
       <use xlink:href="#m0e8d8df45b" x="34.563281" y="42.374603" style="fill: #475569; stroke: #475569; stroke-width: 0.8"/>
      </g>
     </g>
     <g id="text_16">
      <text style="font-size: 10px; font-family: 'DejaVu Sans'; text-anchor: end; fill: #475569" x="27.563281" y="46.173431" transform="rotate(-0 27.563281 46.173431)">6</text>
     </g>
    </g>
    <g id="text_17">
     <text style="font-size: 10px; font-family: 'DejaVu Sans'; text-anchor: middle; fill: #334155" x="14.798438" y="145.7" transform="rotate(-90 14.798438 145.7)">Reader completions, including final answer</text>
    </g>
   </g>
   <g id="line2d_23">
    <path d="M 61.390447 130.311111 
L 121.006372 174.279365 
L 180.622297 174.279365 
L 240.238222 174.279365 
L 299.854147 174.279365 
L 359.470072 218.247619 
L 419.085997 130.311111 
L 478.701922 86.342857 
L 538.317846 42.374603 
L 597.933771 42.374603 
" clip-path="url(#pffc66f7440)" style="fill: none; stroke: #2563eb; stroke-opacity: 0.85; stroke-width: 1.5; stroke-linecap: square"/>
    <defs>
     <path id="m40253ea809" d="M 0 3 
C 0.795609 3 1.55874 2.683901 2.12132 2.12132 
C 2.683901 1.55874 3 0.795609 3 0 
C 3 -0.795609 2.683901 -1.55874 2.12132 -2.12132 
C 1.55874 -2.683901 0.795609 -3 0 -3 
C -0.795609 -3 -1.55874 -2.683901 -2.12132 -2.12132 
C -2.683901 -1.55874 -3 -0.795609 -3 0 
C -3 0.795609 -2.683901 1.55874 -2.12132 2.12132 
C -1.55874 2.683901 -0.795609 3 0 3 
z
" style="stroke: #2563eb; stroke-opacity: 0.85"/>
    </defs>
    <g clip-path="url(#pffc66f7440)">
     <use xlink:href="#m40253ea809" x="61.390447" y="130.311111" style="fill: #2563eb; fill-opacity: 0.85; stroke: #2563eb; stroke-opacity: 0.85"/>
     <use xlink:href="#m40253ea809" x="121.006372" y="174.279365" style="fill: #2563eb; fill-opacity: 0.85; stroke: #2563eb; stroke-opacity: 0.85"/>
     <use xlink:href="#m40253ea809" x="180.622297" y="174.279365" style="fill: #2563eb; fill-opacity: 0.85; stroke: #2563eb; stroke-opacity: 0.85"/>
     <use xlink:href="#m40253ea809" x="240.238222" y="174.279365" style="fill: #2563eb; fill-opacity: 0.85; stroke: #2563eb; stroke-opacity: 0.85"/>
     <use xlink:href="#m40253ea809" x="299.854147" y="174.279365" style="fill: #2563eb; fill-opacity: 0.85; stroke: #2563eb; stroke-opacity: 0.85"/>
     <use xlink:href="#m40253ea809" x="359.470072" y="218.247619" style="fill: #2563eb; fill-opacity: 0.85; stroke: #2563eb; stroke-opacity: 0.85"/>
     <use xlink:href="#m40253ea809" x="419.085997" y="130.311111" style="fill: #2563eb; fill-opacity: 0.85; stroke: #2563eb; stroke-opacity: 0.85"/>
     <use xlink:href="#m40253ea809" x="478.701922" y="86.342857" style="fill: #2563eb; fill-opacity: 0.85; stroke: #2563eb; stroke-opacity: 0.85"/>
     <use xlink:href="#m40253ea809" x="538.317846" y="42.374603" style="fill: #2563eb; fill-opacity: 0.85; stroke: #2563eb; stroke-opacity: 0.85"/>
     <use xlink:href="#m40253ea809" x="597.933771" y="42.374603" style="fill: #2563eb; fill-opacity: 0.85; stroke: #2563eb; stroke-opacity: 0.85"/>
    </g>
   </g>
   <g id="line2d_24">
    <path d="M 61.390447 174.279365 
L 121.006372 174.279365 
L 180.622297 174.279365 
L 240.238222 42.374603 
L 299.854147 174.279365 
L 359.470072 42.374603 
L 419.085997 42.374603 
L 478.701922 42.374603 
L 538.317846 86.342857 
L 597.933771 42.374603 
" clip-path="url(#pffc66f7440)" style="fill: none; stroke: #d97706; stroke-opacity: 0.85; stroke-width: 1.5; stroke-linecap: square"/>
    <defs>
     <path id="m8708e49f0b" d="M 0 3 
C 0.795609 3 1.55874 2.683901 2.12132 2.12132 
C 2.683901 1.55874 3 0.795609 3 0 
C 3 -0.795609 2.683901 -1.55874 2.12132 -2.12132 
C 1.55874 -2.683901 0.795609 -3 0 -3 
C -0.795609 -3 -1.55874 -2.683901 -2.12132 -2.12132 
C -2.683901 -1.55874 -3 -0.795609 -3 0 
C -3 0.795609 -2.683901 1.55874 -2.12132 2.12132 
C -1.55874 2.683901 -0.795609 3 0 3 
z
" style="stroke: #d97706; stroke-opacity: 0.85"/>
    </defs>
    <g clip-path="url(#pffc66f7440)">
     <use xlink:href="#m8708e49f0b" x="61.390447" y="174.279365" style="fill: #d97706; fill-opacity: 0.85; stroke: #d97706; stroke-opacity: 0.85"/>
     <use xlink:href="#m8708e49f0b" x="121.006372" y="174.279365" style="fill: #d97706; fill-opacity: 0.85; stroke: #d97706; stroke-opacity: 0.85"/>
     <use xlink:href="#m8708e49f0b" x="180.622297" y="174.279365" style="fill: #d97706; fill-opacity: 0.85; stroke: #d97706; stroke-opacity: 0.85"/>
     <use xlink:href="#m8708e49f0b" x="240.238222" y="42.374603" style="fill: #d97706; fill-opacity: 0.85; stroke: #d97706; stroke-opacity: 0.85"/>
     <use xlink:href="#m8708e49f0b" x="299.854147" y="174.279365" style="fill: #d97706; fill-opacity: 0.85; stroke: #d97706; stroke-opacity: 0.85"/>
     <use xlink:href="#m8708e49f0b" x="359.470072" y="42.374603" style="fill: #d97706; fill-opacity: 0.85; stroke: #d97706; stroke-opacity: 0.85"/>
     <use xlink:href="#m8708e49f0b" x="419.085997" y="42.374603" style="fill: #d97706; fill-opacity: 0.85; stroke: #d97706; stroke-opacity: 0.85"/>
     <use xlink:href="#m8708e49f0b" x="478.701922" y="42.374603" style="fill: #d97706; fill-opacity: 0.85; stroke: #d97706; stroke-opacity: 0.85"/>
     <use xlink:href="#m8708e49f0b" x="538.317846" y="86.342857" style="fill: #d97706; fill-opacity: 0.85; stroke: #d97706; stroke-opacity: 0.85"/>
     <use xlink:href="#m8708e49f0b" x="597.933771" y="42.374603" style="fill: #d97706; fill-opacity: 0.85; stroke: #d97706; stroke-opacity: 0.85"/>
    </g>
   </g>
   <g id="line2d_25">
    <path d="M 61.390447 130.311111 
L 121.006372 130.311111 
L 180.622297 130.311111 
L 240.238222 130.311111 
L 299.854147 86.342857 
L 359.470072 86.342857 
L 419.085997 42.374603 
L 478.701922 42.374603 
L 538.317846 42.374603 
L 597.933771 42.374603 
" clip-path="url(#pffc66f7440)" style="fill: none; stroke: #0d9488; stroke-opacity: 0.85; stroke-width: 1.5; stroke-linecap: square"/>
    <defs>
     <path id="m4b3919c751" d="M 0 3 
C 0.795609 3 1.55874 2.683901 2.12132 2.12132 
C 2.683901 1.55874 3 0.795609 3 0 
C 3 -0.795609 2.683901 -1.55874 2.12132 -2.12132 
C 1.55874 -2.683901 0.795609 -3 0 -3 
C -0.795609 -3 -1.55874 -2.683901 -2.12132 -2.12132 
C -2.683901 -1.55874 -3 -0.795609 -3 0 
C -3 0.795609 -2.683901 1.55874 -2.12132 2.12132 
C -1.55874 2.683901 -0.795609 3 0 3 
z
" style="stroke: #0d9488; stroke-opacity: 0.85"/>
    </defs>
    <g clip-path="url(#pffc66f7440)">
     <use xlink:href="#m4b3919c751" x="61.390447" y="130.311111" style="fill: #0d9488; fill-opacity: 0.85; stroke: #0d9488; stroke-opacity: 0.85"/>
     <use xlink:href="#m4b3919c751" x="121.006372" y="130.311111" style="fill: #0d9488; fill-opacity: 0.85; stroke: #0d9488; stroke-opacity: 0.85"/>
     <use xlink:href="#m4b3919c751" x="180.622297" y="130.311111" style="fill: #0d9488; fill-opacity: 0.85; stroke: #0d9488; stroke-opacity: 0.85"/>
     <use xlink:href="#m4b3919c751" x="240.238222" y="130.311111" style="fill: #0d9488; fill-opacity: 0.85; stroke: #0d9488; stroke-opacity: 0.85"/>
     <use xlink:href="#m4b3919c751" x="299.854147" y="86.342857" style="fill: #0d9488; fill-opacity: 0.85; stroke: #0d9488; stroke-opacity: 0.85"/>
     <use xlink:href="#m4b3919c751" x="359.470072" y="86.342857" style="fill: #0d9488; fill-opacity: 0.85; stroke: #0d9488; stroke-opacity: 0.85"/>
     <use xlink:href="#m4b3919c751" x="419.085997" y="42.374603" style="fill: #0d9488; fill-opacity: 0.85; stroke: #0d9488; stroke-opacity: 0.85"/>
     <use xlink:href="#m4b3919c751" x="478.701922" y="42.374603" style="fill: #0d9488; fill-opacity: 0.85; stroke: #0d9488; stroke-opacity: 0.85"/>
     <use xlink:href="#m4b3919c751" x="538.317846" y="42.374603" style="fill: #0d9488; fill-opacity: 0.85; stroke: #0d9488; stroke-opacity: 0.85"/>
     <use xlink:href="#m4b3919c751" x="597.933771" y="42.374603" style="fill: #0d9488; fill-opacity: 0.85; stroke: #0d9488; stroke-opacity: 0.85"/>
    </g>
   </g>
   <g id="line2d_26">
    <path d="M 34.563281 42.374603 
L 624.760937 42.374603 
" clip-path="url(#pffc66f7440)" style="fill: none; stroke-dasharray: 5.55,2.4; stroke-dashoffset: 0; stroke: #dc2626; stroke-width: 1.5"/>
   </g>
   <g id="patch_3">
    <path d="M 34.563281 284.2 
L 34.563281 7.2 
" style="fill: none; stroke: #cbd5e1; stroke-width: 0.8; stroke-linejoin: miter; stroke-linecap: square"/>
   </g>
   <g id="patch_4">
    <path d="M 34.563281 284.2 
L 624.760937 284.2 
" style="fill: none; stroke: #cbd5e1; stroke-width: 0.8; stroke-linejoin: miter; stroke-linecap: square"/>
   </g>
   <g id="legend_1">
    <g id="patch_5">
     <path d="M 41.563281 279.2 
L 223.672656 279.2 
Q 225.672656 279.2 225.672656 277.2 
L 225.672656 248.198437 
Q 225.672656 246.198437 223.672656 246.198437 
L 41.563281 246.198437 
Q 39.563281 246.198437 39.563281 248.198437 
L 39.563281 277.2 
Q 39.563281 279.2 41.563281 279.2 
z
" style="fill: #ffffff; opacity: 0.8; stroke: #cccccc; stroke-linejoin: miter"/>
    </g>
    <g id="line2d_27">
     <path d="M 43.563281 254.296875 
L 53.563281 254.296875 
L 63.563281 254.296875 
" style="fill: none; stroke: #2563eb; stroke-opacity: 0.85; stroke-width: 1.5; stroke-linecap: square"/>
     <g>
      <use xlink:href="#m40253ea809" x="53.563281" y="254.296875" style="fill: #2563eb; fill-opacity: 0.85; stroke: #2563eb; stroke-opacity: 0.85"/>
     </g>
    </g>
    <g id="text_18">
     <text style="font-size: 10px; font-family: 'DejaVu Sans'; text-anchor: start" x="71.563281" y="257.796875" transform="rotate(-0 71.563281 257.796875)">S3</text>
    </g>
    <g id="line2d_28">
     <path d="M 43.563281 269.297656 
L 53.563281 269.297656 
L 63.563281 269.297656 
" style="fill: none; stroke: #d97706; stroke-opacity: 0.85; stroke-width: 1.5; stroke-linecap: square"/>
     <g>
      <use xlink:href="#m8708e49f0b" x="53.563281" y="269.297656" style="fill: #d97706; fill-opacity: 0.85; stroke: #d97706; stroke-opacity: 0.85"/>
     </g>
    </g>
    <g id="text_19">
     <text style="font-size: 10px; font-family: 'DejaVu Sans'; text-anchor: start" x="71.563281" y="272.797656" transform="rotate(-0 71.563281 272.797656)">S1</text>
    </g>
    <g id="line2d_29">
     <path d="M 104.274219 254.296875 
L 114.274219 254.296875 
L 124.274219 254.296875 
" style="fill: none; stroke: #0d9488; stroke-opacity: 0.85; stroke-width: 1.5; stroke-linecap: square"/>
     <g>
      <use xlink:href="#m4b3919c751" x="114.274219" y="254.296875" style="fill: #0d9488; fill-opacity: 0.85; stroke: #0d9488; stroke-opacity: 0.85"/>
     </g>
    </g>
    <g id="text_20">
     <text style="font-size: 10px; font-family: 'DejaVu Sans'; text-anchor: start" x="132.274219" y="257.796875" transform="rotate(-0 132.274219 257.796875)">S0</text>
    </g>
    <g id="line2d_30">
     <path d="M 104.274219 269.297656 
L 114.274219 269.297656 
L 124.274219 269.297656 
" style="fill: none; stroke-dasharray: 5.55,2.4; stroke-dashoffset: 0; stroke: #dc2626; stroke-width: 1.5"/>
    </g>
    <g id="text_21">
     <text style="font-size: 10px; font-family: 'DejaVu Sans'; text-anchor: start" x="132.274219" y="272.797656" transform="rotate(-0 132.274219 272.797656)">Six-call maximum</text>
    </g>
   </g>
  </g>
 </g>
 <defs>
  <clipPath id="pffc66f7440">
   <rect x="34.563281" y="7.2" width="590.197656" height="277"/>
  </clipPath>
 </defs>
</svg>
